#!OML:ASF E:\id_vita\Project 1\Capture day 1\Session 1\Female.ASF
:FULLY-SPECIFIED
:DEGREES
443
root 35.1629 16.4899 -0.845294 -177.917 -82.7117 191.219
lowerback -1.48328 1.90073 -3.76466
upperback -3.19498 2.48237 -0.219134
thorax -2.60715 1.31053 1.85815
lowerneck 13.0427 1.48568 -2.61299
upperneck -18.0055 2.27054 4.68496
head -7.78897 0.74404 1.7501
rclavicle -1.1778e-014 9.54166e-015
rhumerus -27.3697 -11.4169 -85.7802
rradius 23.8411
rwrist 21.2676
rhand -16.8044 10.6178
rfingers 7.12502
rthumb 9.4241 -19.1516
lclavicle -1.1778e-014 9.54166e-015
lhumerus -24.7591 39.1527 74.5574
lradius 17.2449
lwrist -42.8791
lhand -7.50011 20.54
lfingers 7.12502
lthumb 18.3898 49.6908
rfemur -17.01 1.01839 29.1454
rtibia 23.7759
rfoot -9.32936 -19.9633
rtoes -0.125151
lfemur -51.1019 -0.962609 -12.8957
ltibia 68.4509
lfoot -3.35022 -0.834184
ltoes -3.34815
444
root 35.1695 16.4941 -0.843704 -176.965 -82.6651 190.378
lowerback -1.79165 1.87409 -3.66387
upperback -3.10458 2.45952 -0.350228
thorax -2.3282 1.28913 1.68097
lowerneck 13.0588 1.54356 -2.57138
upperneck -18.2677 2.36608 4.70766
head -7.88233 0.778379 1.74304
rclavicle -2.76311e-014 -5.1684e-015
rhumerus -27.9929 -12.766 -85.0726
rradius 23.3026
rwrist 21.6858
rhand -16.9392 11.7904
rfingers 7.12502
rthumb 9.29403 -17.9848
lclavicle -2.76311e-014 -5.1684e-015
lhumerus -27.371 43.7947 70.8574
lradius 15.8651
lwrist -47.3438
lhand -7.28228 20.6025
lfingers 7.12502
lthumb 18.5993 49.7333
rfemur -17.1744 1.1101 29.0223
rtibia 23.8114
rfoot -9.54987 -20.0654
rtoes -0.252305
lfemur -51.0832 -0.901542 -13.1215
ltibia 68.9551
lfoot -3.46104 -1.35042
ltoes -2.61049
445
root 35.1782 16.4946 -0.84175 -176.117 -82.5094 189.659
lowerback -2.17328 1.89779 -3.862
upperback -2.95179 2.51591 -0.264295
thorax -1.97296 1.31571 1.89687
lowerneck 12.8115 1.59594 -2.72104
upperneck -18.3228 2.39851 4.66209
head -7.8585 0.809346 1.7508
rclavicle 3.26504e-014 3.57812e-015
rhumerus -28.4826 -14.0794 -83.9783
rradius 22.6964
rwrist 22.2043
rhand -16.3858 12.1555
rfingers 7.12502
rthumb 9.82795 -17.5951
lclavicle 3.26504e-014 3.57812e-015
lhumerus -31.129 49.1544 66.1776
lradius 14.6696
lwrist -52.7593
lhand -7.38613 20.4213
lfingers 7.12502
lthumb 18.4994 49.5616
rfemur -17.3544 1.2685 28.9216
rtibia 23.8236
rfoot -9.52748 -20.1584
rtoes -1.27213
lfemur -51.0688 -0.75282 -13.3337
ltibia 69.3819
lfoot -3.12242 -1.74474
ltoes -2.10189
446
root 35.1888 16.4954 -0.838719 -175.588 -82.4056 189.229
lowerback -1.86596 1.93924 -3.74227
upperback -3.17947 2.5446 -0.402467
thorax -2.37024 1.33327 1.67134
lowerneck 12.5657 1.62572 -2.73294
upperneck -18.0549 2.47007 4.84809
head -7.73136 0.832836 1.80538
rclavicle 3.98066e-014 -1.19271e-014
rhumerus -29.5959 -16.0444 -82.771
rradius 21.868
rwrist 23.5346
rhand -15.8102 10.9677
rfingers 7.12502
rthumb 10.3832 -18.7559
lclavicle 3.98066e-014 -1.19271e-014
lhumerus -35.967 52.6607 60.4828
lradius 13.8841
lwrist -56.9587
lhand -7.15297 21.3281
lfingers 7.12502
lthumb 18.7237 50.447
rfemur -17.506 1.37235 28.8644
rtibia 23.8172
rfoot -9.39423 -20.201
rtoes -1.86985
lfemur -51.0031 -0.676227 -13.486
ltibia 69.7409
lfoot -2.87537 -2.20102
ltoes -1.98314
447
root 35.1948 16.498 -0.835631 -175.211 -82.3402 188.909
lowerback -2.12387 1.9009 -3.89277
upperback -3.00467 2.51508 -0.293078
thorax -2.05541 1.31717 1.88141
lowerneck 12.2803 1.63989 -2.81499
upperneck -18.2249 2.45548 4.75088
head -7.73524 0.839148 1.79118
rclavicle 3.1408e-014 -1.07344e-014
rhumerus -30.1138 -17.7776 -81.3759
rradius 20.9517
rwrist 24.9275
rhand -15.7024 10.1999
rfingers 7.12502
rthumb 10.4873 -19.5185
lclavicle 3.1408e-014 -1.07344e-014
lhumerus -42.2031 57.1333 53.2597
lradius 13.1196
lwrist -62.1511
lhand -6.81603 22.1707
lfingers 7.12502
lthumb 19.0477 51.258
rfemur -17.5989 1.48554 28.8048
rtibia 23.8312
rfoot -9.35666 -20.2089
rtoes -1.75291
lfemur -50.8096 -0.639205 -13.6144
ltibia 70.0343
lfoot -3.02354 -2.71081
ltoes -3.0268
448
root 35.1993 16.5003 -0.833015 -174.655 -82.1894 188.441
lowerback -2.04168 1.9831 -3.81236
upperback -3.30919 2.60276 -0.439844
thorax -2.41095 1.36387 1.67516
lowerneck 13.0737 1.55175 -2.56842
upperneck -18.549 2.37907 4.70183
head -7.97876 0.778509 1.74196
rclavicle 1.05853e-014 3.97569e-016
rhumerus -31.7177 -19.6965 -79.8612
rradius 20.2913
rwrist 26.1521
rhand -15.5301 10.1892
rfingers 7.12502
rthumb 10.6534 -19.5207
lclavicle 1.05853e-014 3.97569e-016
lhumerus -53.2768 61.3435 40.5473
lradius 12.2982
lwrist -69.1527
lhand -6.83943 22.1714
lfingers 7.12502
lthumb 19.0252 51.2609
rfemur -17.7079 1.71632 28.7036
rtibia 23.8724
rfoot -9.43364 -20.2391
rtoes -1.46404
lfemur -50.5976 -0.567443 -13.7521
ltibia 70.2612
lfoot -2.95709 -3.12979
ltoes -4.38917
